<mxfile host="app.diagrams.net" modified="2022-01-13T18:50:23.704Z" agent="5.0 (Macintosh; Intel Mac OS X 10_15_7) AppleWebKit/537.36 (KHTML, like Gecko) Chrome/97.0.4692.71 Safari/537.36" etag="32dlkmaqErtW90MFjlaH" version="16.2.6" type="github" pages="2">
  <diagram id="C5RBs43oDa-KdzZeNtuy" name="Login Flow">
    <mxGraphModel dx="2167" dy="604" grid="1" gridSize="10" guides="1" tooltips="1" connect="1" arrows="1" fold="1" page="1" pageScale="1" pageWidth="827" pageHeight="1169" math="0" shadow="0">
      <root>
        <mxCell id="WIyWlLk6GJQsqaUBKTNV-0" />
        <mxCell id="WIyWlLk6GJQsqaUBKTNV-1" parent="WIyWlLk6GJQsqaUBKTNV-0" />
        <mxCell id="WIyWlLk6GJQsqaUBKTNV-2" value="" style="rounded=0;html=1;jettySize=auto;orthogonalLoop=1;fontSize=11;endArrow=block;endFill=0;endSize=8;strokeWidth=1;shadow=0;labelBackgroundColor=none;edgeStyle=orthogonalEdgeStyle;" parent="WIyWlLk6GJQsqaUBKTNV-1" source="WIyWlLk6GJQsqaUBKTNV-3" target="WIyWlLk6GJQsqaUBKTNV-6" edge="1">
          <mxGeometry relative="1" as="geometry" />
        </mxCell>
        <mxCell id="N-eQlCVIpRMiX8yEnDeA-14" style="edgeStyle=orthogonalEdgeStyle;rounded=0;orthogonalLoop=1;jettySize=auto;html=1;exitX=0.5;exitY=1;exitDx=0;exitDy=0;entryX=0.5;entryY=0;entryDx=0;entryDy=0;" edge="1" parent="WIyWlLk6GJQsqaUBKTNV-1" source="WIyWlLk6GJQsqaUBKTNV-3" target="N-eQlCVIpRMiX8yEnDeA-11">
          <mxGeometry relative="1" as="geometry" />
        </mxCell>
        <mxCell id="N-eQlCVIpRMiX8yEnDeA-32" value="" style="edgeStyle=orthogonalEdgeStyle;rounded=0;orthogonalLoop=1;jettySize=auto;html=1;" edge="1" parent="WIyWlLk6GJQsqaUBKTNV-1" source="WIyWlLk6GJQsqaUBKTNV-3" target="N-eQlCVIpRMiX8yEnDeA-31">
          <mxGeometry relative="1" as="geometry" />
        </mxCell>
        <mxCell id="WIyWlLk6GJQsqaUBKTNV-3" value="&lt;a href=&quot;data:page/id,41-cwJReHn9E8La9h7f7&quot;&gt;Request Login&lt;/a&gt;" style="rounded=1;whiteSpace=wrap;html=1;fontSize=12;glass=0;strokeWidth=1;shadow=0;" parent="WIyWlLk6GJQsqaUBKTNV-1" vertex="1">
          <mxGeometry x="-600" y="10" width="120" height="40" as="geometry" />
        </mxCell>
        <mxCell id="N-eQlCVIpRMiX8yEnDeA-17" value="" style="edgeStyle=orthogonalEdgeStyle;rounded=0;orthogonalLoop=1;jettySize=auto;html=1;" edge="1" parent="WIyWlLk6GJQsqaUBKTNV-1" source="WIyWlLk6GJQsqaUBKTNV-6" target="N-eQlCVIpRMiX8yEnDeA-16">
          <mxGeometry relative="1" as="geometry" />
        </mxCell>
        <mxCell id="WIyWlLk6GJQsqaUBKTNV-6" value="First Time User" style="rhombus;whiteSpace=wrap;html=1;shadow=0;fontFamily=Helvetica;fontSize=12;align=center;strokeWidth=1;spacing=6;spacingTop=-4;" parent="WIyWlLk6GJQsqaUBKTNV-1" vertex="1">
          <mxGeometry x="-650" y="100" width="100" height="80" as="geometry" />
        </mxCell>
        <mxCell id="N-eQlCVIpRMiX8yEnDeA-35" style="edgeStyle=orthogonalEdgeStyle;rounded=0;orthogonalLoop=1;jettySize=auto;html=1;entryX=1;entryY=0.25;entryDx=0;entryDy=0;exitX=0.81;exitY=0.711;exitDx=0;exitDy=0;exitPerimeter=0;" edge="1" parent="WIyWlLk6GJQsqaUBKTNV-1" source="WIyWlLk6GJQsqaUBKTNV-11" target="N-eQlCVIpRMiX8yEnDeA-18">
          <mxGeometry relative="1" as="geometry">
            <Array as="points">
              <mxPoint x="-440" y="310" />
            </Array>
          </mxGeometry>
        </mxCell>
        <mxCell id="WIyWlLk6GJQsqaUBKTNV-11" value="Magic token via template 3" style="shape=document;whiteSpace=wrap;html=1;boundedLbl=1;shadow=0;fontFamily=Helvetica;fontSize=12;align=center;strokeColor=#d6b656;strokeWidth=1;fillColor=#fff2cc;" parent="WIyWlLk6GJQsqaUBKTNV-1" vertex="1">
          <mxGeometry x="-525" y="203.13" width="105" height="45" as="geometry" />
        </mxCell>
        <mxCell id="N-eQlCVIpRMiX8yEnDeA-15" style="edgeStyle=orthogonalEdgeStyle;rounded=0;orthogonalLoop=1;jettySize=auto;html=1;exitX=0.5;exitY=1;exitDx=0;exitDy=0;entryX=0.5;entryY=0;entryDx=0;entryDy=0;" edge="1" parent="WIyWlLk6GJQsqaUBKTNV-1" source="N-eQlCVIpRMiX8yEnDeA-11" target="WIyWlLk6GJQsqaUBKTNV-11">
          <mxGeometry relative="1" as="geometry" />
        </mxCell>
        <mxCell id="N-eQlCVIpRMiX8yEnDeA-11" value="Account Exists" style="rhombus;whiteSpace=wrap;html=1;" vertex="1" parent="WIyWlLk6GJQsqaUBKTNV-1">
          <mxGeometry x="-512.5" y="100" width="80" height="80" as="geometry" />
        </mxCell>
        <mxCell id="N-eQlCVIpRMiX8yEnDeA-27" style="edgeStyle=orthogonalEdgeStyle;rounded=0;orthogonalLoop=1;jettySize=auto;html=1;exitX=0;exitY=0.5;exitDx=0;exitDy=0;entryX=0;entryY=0.25;entryDx=0;entryDy=0;fillColor=#fff2cc;strokeColor=#d6b656;" edge="1" parent="WIyWlLk6GJQsqaUBKTNV-1" source="N-eQlCVIpRMiX8yEnDeA-16" target="N-eQlCVIpRMiX8yEnDeA-18">
          <mxGeometry relative="1" as="geometry">
            <mxPoint x="-640" y="290" as="targetPoint" />
          </mxGeometry>
        </mxCell>
        <mxCell id="N-eQlCVIpRMiX8yEnDeA-16" value="Magic token via template 1" style="shape=document;whiteSpace=wrap;html=1;boundedLbl=1;shadow=0;fontFamily=Helvetica;fontSize=12;align=center;strokeColor=#d6b656;strokeWidth=1;fillColor=#fff2cc;" vertex="1" parent="WIyWlLk6GJQsqaUBKTNV-1">
          <mxGeometry x="-642.5" y="205" width="85" height="45" as="geometry" />
        </mxCell>
        <mxCell id="N-eQlCVIpRMiX8yEnDeA-26" value="" style="edgeStyle=orthogonalEdgeStyle;rounded=0;orthogonalLoop=1;jettySize=auto;html=1;fillColor=#fff2cc;strokeColor=#d6b656;" edge="1" parent="WIyWlLk6GJQsqaUBKTNV-1" source="N-eQlCVIpRMiX8yEnDeA-18" target="N-eQlCVIpRMiX8yEnDeA-25">
          <mxGeometry relative="1" as="geometry" />
        </mxCell>
        <mxCell id="N-eQlCVIpRMiX8yEnDeA-18" value="Login to Website" style="rounded=1;whiteSpace=wrap;html=1;" vertex="1" parent="WIyWlLk6GJQsqaUBKTNV-1">
          <mxGeometry x="-610" y="302.5" width="130" height="30" as="geometry" />
        </mxCell>
        <mxCell id="N-eQlCVIpRMiX8yEnDeA-25" value="Send information about downloading app via template 2" style="shape=document;whiteSpace=wrap;html=1;boundedLbl=1;rounded=1;fillColor=#fff2cc;strokeColor=#d6b656;" vertex="1" parent="WIyWlLk6GJQsqaUBKTNV-1">
          <mxGeometry x="-810" y="282.5" width="120" height="70" as="geometry" />
        </mxCell>
        <mxCell id="N-eQlCVIpRMiX8yEnDeA-34" style="edgeStyle=orthogonalEdgeStyle;rounded=0;orthogonalLoop=1;jettySize=auto;html=1;exitX=0.5;exitY=1;exitDx=0;exitDy=0;entryX=1;entryY=0.5;entryDx=0;entryDy=0;" edge="1" parent="WIyWlLk6GJQsqaUBKTNV-1" source="N-eQlCVIpRMiX8yEnDeA-31" target="N-eQlCVIpRMiX8yEnDeA-18">
          <mxGeometry relative="1" as="geometry" />
        </mxCell>
        <mxCell id="N-eQlCVIpRMiX8yEnDeA-31" value="T1V App direct authentication" style="rhombus;whiteSpace=wrap;html=1;rounded=1;glass=0;strokeWidth=1;shadow=0;" vertex="1" parent="WIyWlLk6GJQsqaUBKTNV-1">
          <mxGeometry x="-413" y="191.25" width="123" height="68.75" as="geometry" />
        </mxCell>
      </root>
    </mxGraphModel>
  </diagram>
  <diagram id="41-cwJReHn9E8La9h7f7" name="Login Messaging">
    <mxGraphModel dx="1340" dy="604" grid="1" gridSize="10" guides="1" tooltips="1" connect="1" arrows="1" fold="1" page="1" pageScale="1" pageWidth="850" pageHeight="1100" math="0" shadow="0">
      <root>
        <mxCell id="zTBgxipIPBk7fvoCf2cV-0" />
        <mxCell id="zTBgxipIPBk7fvoCf2cV-1" parent="zTBgxipIPBk7fvoCf2cV-0" />
      </root>
    </mxGraphModel>
  </diagram>
</mxfile>
